HIERARCHY
ROOT Hips
{
	OFFSET -0.001795 -0.223333 0.028219
	CHANNELS 6 Xposition Yposition Zposition Zrotation Yrotation Xrotation 
	JOINT LeftUpLeg
	{
		OFFSET 0.069520 -0.091406 -0.006815
		CHANNELS 3 Zrotation Yrotation Xrotation
		JOINT LeftLeg
		{
			OFFSET 0.034277 -0.375199 -0.004496
			CHANNELS 3 Zrotation Yrotation Xrotation
			JOINT LeftFoot
			{
				OFFSET -0.013596 -0.397961 -0.043693
				CHANNELS 3 Zrotation Yrotation Xrotation
				JOINT LeftToe
				{
					OFFSET 0.026358 -0.055791 0.119288
					CHANNELS 3 Zrotation Yrotation Xrotation
					End Site
					{
						OFFSET 0.000000 0.000000 0.000000
					}
				}
			}
		}
	}
	JOINT RightUpLeg
	{
		OFFSET -0.067670 -0.090522 -0.004320
		CHANNELS 3 Zrotation Yrotation Xrotation
		JOINT RightLeg
		{
			OFFSET -0.038290 -0.382569 -0.008850
			CHANNELS 3 Zrotation Yrotation Xrotation
			JOINT RightFoot
			{
				OFFSET 0.015774 -0.398415 -0.042312
				CHANNELS 3 Zrotation Yrotation Xrotation
				JOINT RightToe
				{
					OFFSET -0.025372 -0.048144 0.123348
					CHANNELS 3 Zrotation Yrotation Xrotation
					End Site
					{
						OFFSET 0.000000 0.000000 0.000000
					}
				}
			}
		}
	}
	JOINT Spine
	{
		OFFSET -0.002533 0.108963 -0.026696
		CHANNELS 3 Zrotation Yrotation Xrotation
		JOINT Spine1
		{
			OFFSET 0.005487 0.135180 0.001092
			CHANNELS 3 Zrotation Yrotation Xrotation
			JOINT Spine2
			{
				OFFSET 0.001457 0.052922 0.025425
				CHANNELS 3 Zrotation Yrotation Xrotation
				JOINT Neck
				{
					OFFSET -0.002778 0.213870 -0.042857
					CHANNELS 3 Zrotation Yrotation Xrotation
					JOINT Head
					{
						OFFSET 0.005152 0.064970 0.051349
						CHANNELS 3 Zrotation Yrotation Xrotation
						End Site
						{
							OFFSET 0.000000 0.000000 0.000000
						}
					}
				}
				JOINT LeftShoulder
				{
					OFFSET 0.078845 0.121749 -0.034090
					CHANNELS 3 Zrotation Yrotation Xrotation
					JOINT LeftArm
					{
						OFFSET 0.090977 0.030469 -0.008868
						CHANNELS 3 Zrotation Yrotation Xrotation
						JOINT LeftForeArm
						{
							OFFSET 0.259612 -0.012772 -0.027456
							CHANNELS 3 Zrotation Yrotation Xrotation
							JOINT LeftHand
							{
								OFFSET 0.249234 0.008986 -0.001171
								CHANNELS 3 Zrotation Yrotation Xrotation
								End Site
								{
									OFFSET 0.000000 0.000000 0.000000
								}
							}
						}
					}
				}
				JOINT RightShoulder
				{
					OFFSET -0.081759 0.118833 -0.038615
					CHANNELS 3 Zrotation Yrotation Xrotation
					JOINT RightArm
					{
						OFFSET -0.096012 0.032551 -0.009143
						CHANNELS 3 Zrotation Yrotation Xrotation
						JOINT RightForeArm
						{
							OFFSET -0.253742 -0.013329 -0.021401
							CHANNELS 3 Zrotation Yrotation Xrotation
							JOINT RightHand
							{
								OFFSET -0.255298 0.007772 -0.005559
								CHANNELS 3 Zrotation Yrotation Xrotation
								End Site
								{
									OFFSET 0.000000 0.000000 0.000000
								}
							}
						}
					}
				}
			}
		}
	}
}
MOTION
Frames: 11
Frame Time: 0.050000
-0.040632 0.858375 1.909925 -6.292921 18.876328 7.742512 16.724538 -1.262916 -31.770491 -23.766811 6.030914 43.064573 16.023016 32.970369 -5.448823 0.000000 0.000000 0.000000 -3.987704 -0.268873 -39.402402 11.999377 -8.792031 43.082248 -4.091365 -9.197688 -5.975054 0.000000 0.000000 0.000000 -5.259694 -0.945407 25.132734 13.040400 -1.542073 -30.669962 1.894939 2.524235 35.199940 2.431287 2.670787 -29.464728 0.000000 0.000000 0.000000 -30.833362 22.852121 -23.820594 -38.535060 8.791766 -7.935070 -116.562776 -46.355709 69.422385 0.000000 0.000000 0.000000 14.314878 -18.142401 -8.096808 51.822075 -8.954293 -11.064867 109.335818 59.319904 93.497792 0.000000 0.000000 0.000000 
-0.040742 0.859721 1.909918 -6.067368 18.977461 8.228754 16.714051 -1.300972 -32.079899 -23.703695 5.966708 42.628733 15.659865 32.228373 -5.079332 0.000000 0.000000 0.000000 -3.994105 -0.308143 -39.718417 11.719070 -8.615505 43.052824 -4.099826 -9.218867 -6.044354 0.000000 0.000000 0.000000 -5.211425 -0.976710 25.368234 12.981026 -1.477864 -31.168699 1.623869 2.700773 34.964189 2.182213 2.780081 -28.583862 0.000000 0.000000 0.000000 -30.662353 22.717813 -23.703301 -37.478912 9.201688 -7.761727 -116.425180 -46.209644 68.891067 0.000000 0.000000 0.000000 14.089180 -17.766022 -7.856556 50.951808 -8.669956 -10.751892 106.476621 58.799821 89.492847 0.000000 0.000000 0.000000 
-0.040815 0.861211 1.909737 -5.780110 19.013510 8.476605 16.502048 -1.340112 -31.927658 -23.618904 5.866622 42.123813 15.320741 31.553930 -5.216020 0.000000 0.000000 0.000000 -3.832841 -0.270711 -39.879697 11.079936 -8.244949 43.131973 -4.149067 -9.377515 -5.949588 0.000000 0.000000 0.000000 -5.239555 -0.995444 25.660915 12.562378 -1.375640 -31.355219 1.712568 2.910957 34.808795 1.938165 2.906665 -27.874320 0.000000 0.000000 0.000000 -30.273189 22.812338 -23.628256 -36.361466 9.503262 -7.559045 -116.030153 -45.743795 67.620991 0.000000 0.000000 0.000000 13.293541 -17.450279 -7.611438 50.328932 -8.880183 -10.622105 104.662697 57.501058 85.952830 0.000000 0.000000 0.000000 
-0.040814 0.862623 1.909508 -5.471833 19.249550 8.929722 16.123093 -1.426605 -31.632007 -23.481392 5.657768 41.215608 15.013525 31.033412 -6.282047 0.000000 0.000000 0.000000 -3.774719 -0.307254 -40.076130 10.716785 -7.997346 42.834344 -4.391939 -10.081317 -5.885575 0.000000 0.000000 0.000000 -4.934929 -1.063465 25.532831 12.048930 -1.241702 -31.739804 1.407417 2.600719 34.938725 1.352024 3.160482 -27.082013 0.000000 0.000000 0.000000 -29.505553 22.796226 -23.147960 -35.863003 9.681411 -7.531335 -115.527110 -45.780427 67.006764 0.000000 0.000000 0.000000 13.104806 -17.088442 -7.415428 49.338172 -8.943342 -10.482309 104.235631 56.172454 83.722801 0.000000 0.000000 0.000000 
-0.040746 0.864446 1.909258 -5.195890 19.161242 9.165195 16.034215 -1.405662 -31.083912 -23.735443 5.653695 39.938834 14.953774 30.868979 -6.390202 0.000000 0.000000 0.000000 -3.923504 -0.336190 -39.939986 10.748639 -7.942946 42.581054 -4.460101 -10.263012 -6.152454 0.000000 0.000000 0.000000 -4.695676 -1.089695 25.321138 11.610995 -1.149083 -31.835980 1.267631 2.339124 35.035120 1.388081 3.095593 -27.204386 0.000000 0.000000 0.000000 -29.082459 23.087526 -23.013557 -35.577704 10.120617 -7.622796 -115.001504 -45.179433 65.628666 0.000000 0.000000 0.000000 12.730899 -17.058366 -7.426456 48.496131 -9.076901 -10.355404 104.911420 54.880888 82.595546 0.000000 0.000000 0.000000 
-0.040570 0.867154 1.909008 -4.954758 19.107322 9.414574 15.827164 -1.411354 -30.617817 -23.480066 5.464719 38.950811 14.496110 29.868840 -6.530490 0.000000 0.000000 0.000000 -4.047142 -0.341613 -39.598224 10.788698 -7.809066 41.869139 -4.502924 -10.410692 -6.257637 0.000000 0.000000 0.000000 -4.301535 -1.131626 24.877484 11.381976 -1.101776 -31.807788 0.890761 1.980110 35.037692 1.117197 3.164294 -26.918934 0.000000 0.000000 0.000000 -28.826769 22.923846 -22.630361 -35.573430 10.522742 -7.766587 -114.077238 -45.260551 64.848014 0.000000 0.000000 0.000000 12.696051 -16.996832 -7.448241 48.210056 -9.096518 -10.303887 105.568725 54.347089 82.330327 0.000000 0.000000 0.000000 
-0.040332 0.870516 1.908818 -4.774823 18.861216 9.505865 15.481834 -1.410842 -30.180987 -23.170959 5.317439 38.162011 14.481156 29.690444 -5.880025 0.000000 0.000000 0.000000 -4.134819 -0.302182 -39.283145 10.983766 -7.770067 41.375887 -4.615072 -10.774567 -5.952240 0.000000 0.000000 0.000000 -3.852983 -1.182714 24.497594 11.319551 -1.072437 -31.986227 0.446466 1.667338 35.325075 1.156576 3.044189 -26.642719 0.000000 0.000000 0.000000 -28.672302 22.927285 -22.396305 -36.021050 10.773419 -8.011132 -113.598559 -45.619208 64.995984 0.000000 0.000000 0.000000 12.920705 -17.227014 -7.652259 47.854482 -9.197555 -10.334334 107.555086 54.048668 83.850558 0.000000 0.000000 0.000000 
-0.040129 0.873534 1.908697 -4.486645 18.920993 9.322733 14.924366 -1.467984 -29.671751 -22.368721 4.943045 37.818683 13.986644 28.518489 -5.377171 0.000000 0.000000 0.000000 -4.318108 -0.315017 -38.434844 11.096651 -7.725193 40.648147 -4.747422 -11.188781 -6.027900 0.000000 0.000000 0.000000 -3.364022 -1.292279 24.409190 11.020804 -1.014961 -31.996796 0.073348 1.011647 35.379614 1.053128 2.981875 -26.530677 0.000000 0.000000 0.000000 -28.683131 22.991924 -22.216085 -36.670280 10.686665 -8.209104 -112.893539 -46.396505 65.582917 0.000000 0.000000 0.000000 12.968674 -17.503296 -7.898587 48.067475 -9.450106 -10.467563 109.086427 53.671551 84.710833 0.000000 0.000000 0.000000 
-0.040156 0.876027 1.908494 -4.268577 18.769130 9.089189 14.512209 -1.466171 -28.982860 -21.923645 4.746600 37.378197 13.714547 27.845463 -5.228779 0.000000 0.000000 0.000000 -4.557758 -0.320441 -37.708253 11.273307 -7.695794 40.065346 -4.697257 -11.079441 -5.973374 0.000000 0.000000 0.000000 -3.185220 -1.309839 24.257562 11.109892 -1.035451 -31.950249 -0.239307 0.419677 35.510032 0.991598 2.901737 -26.605595 0.000000 0.000000 0.000000 -28.821647 22.975865 -22.030430 -37.451037 10.399632 -8.389070 -113.355143 -47.441492 67.768975 0.000000 0.000000 0.000000 13.217489 -17.962187 -8.264284 48.147885 -9.456779 -10.545411 111.568814 53.563108 87.078743 0.000000 0.000000 0.000000 
-0.040498 0.877358 1.908131 -4.070628 18.659517 8.925033 14.317181 -1.454735 -28.536445 -21.789992 4.679481 37.090573 13.488298 27.316959 -5.147704 0.000000 0.000000 0.000000 -4.755965 -0.328714 -37.046369 11.300051 -7.601858 39.549080 -4.530988 -10.605434 -6.376359 0.000000 0.000000 0.000000 -3.049116 -1.324547 24.177352 11.189736 -1.049264 -31.934208 -0.634632 -0.147861 35.642813 0.977016 2.815012 -26.904671 0.000000 0.000000 0.000000 -28.806800 23.176085 -21.925025 -38.284321 10.138701 -8.601483 -113.463506 -47.951520 68.872402 0.000000 0.000000 0.000000 13.721144 -18.224343 -8.543334 47.972258 -9.729869 -10.684097 114.412376 53.045371 89.313425 0.000000 0.000000 0.000000 
-0.041209 0.878115 1.907494 -3.960572 18.519730 8.794957 14.394929 -1.419932 -28.394353 -21.967056 4.768243 37.079289 13.331288 26.986767 -4.861878 0.000000 0.000000 0.000000 -4.795686 -0.302550 -36.765074 11.394088 -7.579124 39.283979 -4.582540 -10.759950 -6.394611 0.000000 0.000000 0.000000 -2.876684 -1.352721 24.133173 11.115237 -1.033480 -31.957722 -0.882491 -0.723547 35.797292 0.782024 2.825845 -27.106708 0.000000 0.000000 0.000000 -28.966130 23.169307 -21.771991 -39.055138 9.807176 -8.758634 -114.040167 -48.541573 70.595728 0.000000 0.000000 0.000000 13.874557 -18.531816 -8.824236 48.128027 -9.844122 -10.797868 116.604511 52.821109 91.313538 0.000000 0.000000 0.000000 
